<svg width="56" height="56" viewBox="0 0 56 56" fill="none" xmlns="http://www.w3.org/2000/svg">
<path d="M43.0967 51.5833H33.7633C31.2072 51.5833 29.4513 50.885 28.3315 49.7651C27.2117 48.6453 26.5133 46.8894 26.5133 44.3333V11.6666C26.5133 9.11053 27.2117 7.3546 28.3315 6.23479C29.4513 5.11497 31.2072 4.41663 33.7633 4.41663H43.0967C45.6528 4.41663 47.4087 5.11497 48.5285 6.23479C49.6483 7.3546 50.3467 9.11052 50.3467 11.6666V44.3333C50.3467 46.8864 49.6441 48.643 48.5208 49.7641C47.397 50.8857 45.6396 51.5833 43.0967 51.5833ZM33.7633 4.91663C31.7506 4.91663 29.9565 5.33717 28.6952 6.59847C27.4339 7.85976 27.0133 9.65389 27.0133 11.6666V44.3333C27.0133 46.346 27.4339 48.1402 28.6952 49.4015C29.9565 50.6628 31.7506 51.0833 33.7633 51.0833H43.0967C45.1094 51.0833 46.9035 50.6628 48.1648 49.4015C49.4261 48.1402 49.8467 46.346 49.8467 44.3333V11.6666C49.8467 9.65389 49.4261 7.85976 48.1648 6.59847C46.9035 5.33717 45.1094 4.91663 43.0967 4.91663H33.7633Z" stroke="white" stroke-width="3"/>
<path d="M38.43 14.25H26.7633C26.7071 14.25 26.6445 14.2273 26.5902 14.1731C26.536 14.1189 26.5133 14.0563 26.5133 14C26.5133 13.9437 26.536 13.8811 26.5902 13.8269C26.6445 13.7727 26.7071 13.75 26.7633 13.75H38.43C38.4863 13.75 38.5489 13.7727 38.6031 13.8269C38.6573 13.8811 38.68 13.9437 38.68 14C38.68 14.0563 38.6573 14.1189 38.6031 14.1731C38.5489 14.2273 38.4863 14.25 38.43 14.25Z" stroke="white" stroke-width="3"/>
<path d="M36.0967 42.25H26.7633C26.7071 42.25 26.6445 42.2273 26.5902 42.1731C26.536 42.1189 26.5133 42.0563 26.5133 42C26.5133 41.9437 26.536 41.8811 26.5902 41.8269C26.6445 41.7727 26.7071 41.75 26.7633 41.75H36.0967C36.1529 41.75 36.2155 41.7727 36.2698 41.8269C36.324 41.8811 36.3467 41.9437 36.3467 42C36.3467 42.0563 36.324 42.1189 36.2698 42.1731C36.2155 42.2273 36.1529 42.25 36.0967 42.25Z" stroke="white" stroke-width="3"/>
<path d="M26.755 32.8001L26.7475 32.8H26.74C26.6179 32.8 26.5098 32.6925 26.5129 32.5624L26.5133 32.5446V32.5267C26.5133 32.4245 26.6088 32.3 26.7633 32.3H26.7633H26.7633H26.7633H26.7633H26.7633H26.7633H26.7633H26.7633H26.7633H26.7633H26.7633H26.7633H26.7633H26.7633H26.7633H26.7633H26.7633H26.7633H26.7633H26.7633H26.7633H26.7633H26.7633H26.7633H26.7633H26.7634H26.7634H26.7634H26.7634H26.7634H26.7634H26.7634H26.7634H26.7634H26.7634H26.7634H26.7634H26.7634H26.7634H26.7634H26.7634H26.7634H26.7634H26.7634H26.7634H26.7634H26.7634H26.7634H26.7634H26.7634H26.7634H26.7634H26.7634H26.7634H26.7634H26.7634H26.7634H26.7634H26.7634H26.7634H26.7635H26.7635H26.7635H26.7635H26.7635H26.7635H26.7635H26.7635H26.7635H26.7635H26.7635H26.7635H26.7635H26.7635H26.7635H26.7635H26.7635H26.7635H26.7636H26.7636H26.7636H26.7636H26.7636H26.7636H26.7636H26.7636H26.7636H26.7636H26.7636H26.7636H26.7636H26.7636H26.7637H26.7637H26.7637H26.7637H26.7637H26.7637H26.7637H26.7637H26.7637H26.7637H26.7637H26.7637H26.7638H26.7638H26.7638H26.7638H26.7638H26.7638H26.7638H26.7638H26.7638H26.7638H26.7639H26.7639H26.7639H26.7639H26.7639H26.7639H26.7639H26.7639H26.764H26.764H26.764H26.764H26.764H26.764H26.764H26.764H26.7641H26.7641H26.7641H26.7641H26.7641H26.7641H26.7641H26.7642H26.7642H26.7642H26.7642H26.7642H26.7642H26.7643H26.7643H26.7643H26.7643H26.7643H26.7643H26.7643H26.7644H26.7644H26.7644H26.7644H26.7644H26.7645H26.7645H26.7645H26.7645H26.7645H26.7645H26.7646H26.7646H26.7646H26.7646H26.7646H26.7647H26.7647H26.7647H26.7647H26.7648H26.7648H26.7648H26.7648H26.7648H26.7649H26.7649H26.7649H26.7649H26.765H26.765H26.765H26.765H26.765H26.7651H26.7651H26.7651H26.7651H26.7652H26.7652H26.7652H26.7652H26.7653H26.7653H26.7653H26.7654H26.7654H26.7654H26.7654H26.7655H26.7655H26.7655H26.7655H26.7656H26.7656H26.7656H26.7657H26.7657H26.7657H26.7658H26.7658H26.7658H26.7658H26.7659H26.7659H26.7659H26.766H26.766H26.766H26.7661H26.7661H26.7661H26.7662H26.7662H26.7662H26.7663H26.7663H26.7663H26.7664H26.7664H26.7664H26.7665H26.7665H26.7666H26.7666H26.7666H26.7667H26.7667H26.7667H26.7668H26.7668H26.7669H26.7669H26.7669H26.767H26.767H26.7671H26.7671H26.7671H26.7672H26.7672H26.7673H26.7673H26.7673H26.7674H26.7674H26.7675H26.7675H26.7676H26.7676H26.7676H26.7677H26.7677H26.7678H26.7678H26.7679H26.7679H26.768H26.768H26.7681H26.7681H26.7682H26.7682H26.7683H26.7683H26.7683H26.7684H26.7684H26.7685H26.7685H26.7686H26.7686H26.7687H26.7688H26.7688H26.7689H26.7689H26.769H26.769H26.7691H26.7691H26.7692H26.7692H26.7693H26.7693H26.7694H26.7695H26.7695H26.7696H26.7696H26.7697H26.7697H26.7698H26.7699H26.7699H26.77H26.77H26.7701H26.7702H26.7702H26.7703H26.7703H26.7704H26.7705H26.7705H26.7706H26.7706H26.7707H26.7708H26.7708H26.7709H26.771H26.771H26.7711H26.7712H26.7712H26.7713H26.7714H26.7714H26.7715H26.7716H26.7716H26.7717H26.7718H26.7718H26.7719H26.772H26.7721H26.7721H26.7722H26.7723H26.7723H26.7724H26.7725H26.7726H26.7726H26.7727H26.7728H26.7729H26.7729H26.773H26.7731H26.7732H26.7732H26.7733H26.7734H26.7735H26.7736H26.7736H26.7737H26.7738H26.7739H26.774H26.774H26.7741H26.7742H26.7743H26.7744H26.7744H26.7745H26.7746H26.7747H26.7748H26.7749H26.775H26.775H26.7751H26.7752H26.7753H26.7754H26.7755H26.7756H26.7757H26.7757H26.7758H26.7759H26.776H26.7761H26.7762H26.7763H26.7764H26.7765H26.7766H26.7767H26.7768H26.7769H26.7769H26.777H26.7771H26.7772H26.7773H26.7774H26.7775H26.7776H26.7777H26.7778H26.7779H26.778H26.7781H26.7782H26.7783H26.7784H26.7785H26.7786H26.7787H26.7788H26.7789H26.7791H26.7792H26.7793H26.7794H26.7795H26.7796H26.7797H26.7798H26.7799H26.78H26.7801H26.7802H26.7803H26.7805H26.7806L38.4383 32.4166L38.4458 32.4167H38.4533C38.5754 32.4167 38.6835 32.5243 38.6804 32.6543L40.18 32.69L38.6804 32.6535C38.6765 32.8156 38.5542 32.9145 38.4339 32.9167L26.755 32.8001Z" stroke="white" stroke-width="3"/>
<path d="M33.7633 23.5834H26.7633C26.7071 23.5834 26.6445 23.5607 26.5902 23.5065C26.536 23.4522 26.5133 23.3896 26.5133 23.3334C26.5133 23.2771 26.536 23.2145 26.5902 23.1603C26.6445 23.1061 26.7071 23.0834 26.7633 23.0834H33.7633C33.8196 23.0834 33.8822 23.1061 33.9364 23.1603C33.9907 23.2145 34.0133 23.2771 34.0133 23.3334C34.0133 23.3896 33.9907 23.4522 33.9364 23.5065C33.8822 23.5607 33.8196 23.5834 33.7633 23.5834Z" stroke="white" stroke-width="3"/>
<path d="M8.5884 48.6463L8.58789 48.6454L6.67623 45.4749C6.67597 45.4745 6.67572 45.474 6.67546 45.4736C6.11327 44.5358 5.65332 42.8896 5.65332 41.8133V11.55C5.65332 7.61839 8.85508 4.41663 12.7867 4.41663C16.7182 4.41663 19.92 7.61839 19.92 11.55V41.79C19.92 42.8662 19.4601 44.5123 18.8979 45.4501C18.8976 45.4506 18.8974 45.4511 18.8971 45.4515L16.9854 48.6221L16.9776 48.6351L16.9701 48.6482C15.8367 50.6167 14.2681 51.5133 12.81 51.5133C11.3503 51.5133 9.77309 50.6141 8.5884 48.6463ZM7.10955 45.1913L7.10951 45.1913L7.11542 45.2011L9.0249 48.368C9.02557 48.3692 9.02625 48.3703 9.02692 48.3714C9.85208 49.754 11.1572 50.99 12.81 50.99C14.4735 50.99 15.7767 49.7145 16.5884 48.3791L16.5912 48.3745L18.5046 45.2011L18.5046 45.2012L18.5104 45.1913C18.794 44.7127 19.0176 44.0903 19.1684 43.5394C19.3191 42.9889 19.4433 42.3416 19.4433 41.79V11.55C19.4433 7.8982 16.4617 4.91663 12.81 4.91663C9.15823 4.91663 6.17665 7.8982 6.17665 11.55V41.79C6.17665 42.3416 6.30083 42.9889 6.45157 43.5394C6.6024 44.0903 6.82594 44.7127 7.10955 45.1913Z" stroke="white" stroke-width="3"/>
<path d="M19.6933 16.5834H5.90332C5.84704 16.5834 5.78445 16.5607 5.73023 16.5065C5.67601 16.4522 5.65332 16.3896 5.65332 16.3334C5.65332 16.2771 5.67601 16.2145 5.73023 16.1603C5.78445 16.1061 5.84704 16.0834 5.90332 16.0834H19.6933C19.7496 16.0834 19.8122 16.1061 19.8664 16.1603C19.9206 16.2145 19.9433 16.2771 19.9433 16.3334C19.9433 16.3896 19.9206 16.4522 19.8664 16.5065C19.8122 16.5607 19.7496 16.5834 19.6933 16.5834Z" stroke="white" stroke-width="3"/>
</svg>
